<svg width="995" height="191" viewBox="0 0 995 191" fill="white"  xmlns="http://www.w3.org/2000/svg">
<g clip-path="url(#clip0_1_2)">
<g clip-path="url(#clip1_1_2)">
<path d="M44.781 167.579L33.2771 185H209.723L198.219 167.579H44.781Z" fill="white"/>
<path d="M121.5 4L2 185H22.8488L121.5 35.5852L220.151 185H241L121.5 4Z" fill="white"/>
<path d="M165.866 150.149L171.618 158.86H192.467L121.5 51.3698L50.5329 158.86H71.3817L121.5 82.955L165.866 150.149Z" fill="white"/>
</g>
<path d="M312.296 76.84C319.037 76.84 325.651 78.2907 332.136 81.192C338.621 84.008 343.955 88.5733 348.136 94.888C352.403 101.117 354.536 109.267 354.536 119.336V185H333.544V123.432C333.544 112.765 331.027 105.043 325.992 100.264C321.043 95.4 314.643 92.968 306.792 92.968C301.587 92.968 296.595 94.4613 291.816 97.448C287.123 100.435 283.24 104.488 280.168 109.608C277.096 114.643 275.56 120.403 275.56 126.888V185H254.824V79.912H275.56V98.984C276.328 95.9973 278.419 92.7973 281.832 89.384C285.245 85.8853 289.597 82.9413 294.888 80.552C300.179 78.0773 305.981 76.84 312.296 76.84ZM371.646 185V79.912H392.254V185H371.646ZM382.27 42.664C378.43 42.664 375.145 41.2987 372.414 38.568C369.683 35.8373 368.318 32.552 368.318 28.712C368.318 24.872 369.683 21.5867 372.414 18.856C375.145 16.1253 378.43 14.76 382.27 14.76C384.745 14.76 387.049 15.4 389.182 16.68C391.401 17.96 393.15 19.624 394.43 21.672C395.795 23.72 396.478 26.0667 396.478 28.712C396.478 32.552 395.07 35.8373 392.254 38.568C389.438 41.2987 386.11 42.664 382.27 42.664ZM536.142 76.84C543.907 76.84 550.521 78.5467 555.982 81.96C561.443 85.288 565.625 90.4507 568.526 97.448C571.427 104.36 572.878 113.192 572.878 123.944V185H552.398V128.296C552.398 116.52 550.777 107.731 547.534 101.928C544.291 96.1253 538.403 93.224 529.87 93.224C525.347 93.224 520.995 94.4613 516.814 96.936C512.718 99.4107 509.305 103.208 506.574 108.328C503.929 113.448 502.606 120.104 502.606 128.296V185H483.278V128.296C483.278 116.52 481.23 107.731 477.134 101.928C473.123 96.1253 467.534 93.224 460.366 93.224C455.758 93.224 451.406 94.4187 447.31 96.808C443.214 99.1973 439.886 102.952 437.326 108.072C434.851 113.192 433.614 119.933 433.614 128.296V185H413.006V79.912H433.614V96.04C434.467 93.3947 436.43 90.6213 439.502 87.72C442.659 84.7333 446.67 82.1733 451.534 80.04C456.483 77.9067 461.987 76.84 468.046 76.84C474.361 76.84 479.651 78.1627 483.918 80.808C488.185 83.4533 491.555 86.6533 494.03 90.408C496.505 94.1627 498.169 97.7467 499.022 101.16C500.217 97.4053 502.521 93.6507 505.934 89.896C509.347 86.1413 513.614 83.0267 518.734 80.552C523.939 78.0773 529.742 76.84 536.142 76.84ZM673.852 185V164.264C673.255 166.397 671.292 169.384 667.964 173.224C664.636 176.979 660.113 180.392 654.396 183.464C648.679 186.536 641.895 188.072 634.044 188.072C624.401 188.072 615.612 185.811 607.676 181.288C599.825 176.68 593.553 170.237 588.86 161.96C584.167 153.597 581.82 143.784 581.82 132.52C581.82 121.256 584.167 111.485 588.86 103.208C593.553 94.8453 599.825 88.36 607.676 83.752C615.612 79.144 624.401 76.84 634.044 76.84C641.809 76.84 648.508 78.248 654.14 81.064C659.857 83.88 664.38 87.1227 667.708 90.792C671.036 94.376 673.041 97.448 673.724 100.008V79.912H694.204V185H673.852ZM602.3 132.52C602.3 140.371 604.007 147.155 607.42 152.872C610.833 158.589 615.271 163.027 620.732 166.184C626.279 169.256 632.167 170.792 638.396 170.792C645.052 170.792 650.983 169.213 656.188 166.056C661.479 162.899 665.66 158.461 668.732 152.744C671.804 146.941 673.34 140.2 673.34 132.52C673.34 124.84 671.804 118.141 668.732 112.424C665.66 106.621 661.479 102.141 656.188 98.984C650.983 95.7413 645.052 94.12 638.396 94.12C632.167 94.12 626.279 95.6987 620.732 98.856C615.271 102.013 610.833 106.451 607.42 112.168C604.007 117.885 602.3 124.669 602.3 132.52ZM700.046 79.912H720.91V36.776H741.518V79.912H768.91V97.832H741.518V151.848C741.518 158.163 742.627 162.771 744.846 165.672C747.15 168.573 750.137 170.024 753.806 170.024C757.134 170.024 759.694 169.427 761.486 168.232C763.363 167.037 764.473 166.227 764.814 165.8L773.134 181.032C772.622 181.544 771.299 182.397 769.166 183.592C767.033 184.701 764.259 185.725 760.846 186.664C757.518 187.603 753.593 188.072 749.07 188.072C741.049 188.072 734.35 185.64 728.974 180.776C723.598 175.827 720.91 168.019 720.91 157.352V97.832H700.046V79.912ZM790.062 136.488C790.233 142.973 791.641 148.947 794.286 154.408C797.017 159.869 801.027 164.221 806.318 167.464C811.694 170.707 818.307 172.328 826.158 172.328C832.814 172.328 838.446 171.347 843.054 169.384C847.662 167.336 851.417 164.947 854.318 162.216C857.219 159.4 859.31 156.84 860.59 154.536L871.086 167.208C868.185 171.475 864.686 175.187 860.59 178.344C856.579 181.501 851.673 183.891 845.87 185.512C840.153 187.219 833.198 188.072 825.006 188.072C813.742 188.072 804.014 185.64 795.822 180.776C787.715 175.912 781.443 169.213 777.006 160.68C772.654 152.061 770.478 142.248 770.478 131.24C770.478 121 772.526 111.784 776.622 103.592C780.803 95.3147 786.862 88.7867 794.798 84.008C802.819 79.2293 812.377 76.84 823.47 76.84C833.795 76.84 842.713 79.016 850.222 83.368C857.817 87.6347 863.705 93.6933 867.886 101.544C872.067 109.395 874.158 118.696 874.158 129.448C874.158 130.131 874.115 131.325 874.03 133.032C874.03 134.653 873.945 135.805 873.774 136.488H790.062ZM854.318 120.488C854.147 116.819 853.081 112.808 851.118 108.456C849.155 104.104 845.955 100.349 841.518 97.192C837.166 94.0347 831.235 92.456 823.726 92.456C815.961 92.456 809.731 93.992 805.038 97.064C800.345 100.136 796.889 103.848 794.67 108.2C792.537 112.467 791.257 116.563 790.83 120.488H854.318ZM930.25 188.072C920.607 188.072 911.946 185.811 904.266 181.288C896.671 176.68 890.655 170.237 886.218 161.96C881.866 153.597 879.69 143.784 879.69 132.52C879.69 121.256 881.866 111.485 886.218 103.208C890.655 94.8453 896.671 88.36 904.266 83.752C911.946 79.144 920.607 76.84 930.25 76.84C938.101 76.84 944.97 78.2053 950.858 80.936C956.831 83.6667 961.567 86.8667 965.066 90.536C968.65 94.2053 970.698 97.3627 971.21 100.008V8.87199H992.074V185H971.594V164.264C970.741 167.08 968.437 170.365 964.682 174.12C961.013 177.789 956.191 181.032 950.218 183.848C944.33 186.664 937.674 188.072 930.25 188.072ZM934.73 170.792C941.386 170.792 947.487 169.213 953.034 166.056C958.581 162.899 962.975 158.461 966.218 152.744C969.546 146.941 971.21 140.2 971.21 132.52C971.21 124.84 969.546 118.141 966.218 112.424C962.975 106.621 958.581 102.141 953.034 98.984C947.487 95.7413 941.386 94.12 934.73 94.12C928.586 94.12 922.869 95.6987 917.578 98.856C912.373 102.013 908.149 106.451 904.906 112.168C901.749 117.885 900.17 124.669 900.17 132.52C900.17 140.371 901.749 147.155 904.906 152.872C908.149 158.589 912.373 163.027 917.578 166.184C922.869 169.256 928.586 170.792 934.73 170.792Z" fill="white"/>
</g>
<defs>
<clipPath id="clip0_1_2">
<rect width="995" height="191" fill="white"/>
</clipPath>
<clipPath id="clip1_1_2">
<rect width="239" height="181" fill="white" transform="translate(2 4)"/>
</clipPath>
</defs>
</svg>
